<svg xmlns="http://www.w3.org/2000/svg" width="13.972" height="20" viewBox="0 0 13.972 20">
  <path id="Path_9" data-name="Path 9" d="M10.259,13.972a.988.988,0,0,0,1.357-.4c1.277-2.475,2.355-5.03,2.355-6.587A6.986,6.986,0,0,0,0,6.986c0,2.994,4.351,9.98,6.267,12.575A1.058,1.058,0,0,0,7.146,20a1.174,1.174,0,0,0,.918-.479c.439-.6.958-1.437,1.557-2.435a1.032,1.032,0,0,0-.359-1.4h0a1.011,1.011,0,0,0-1.317.359c-.279.439-.8,1.277-.8,1.277S2,8.862,2,6.986a4.99,4.99,0,0,1,9.98,0c0,1.118-.918,3.353-2.116,5.669a.976.976,0,0,0,.4,1.317Z" transform="translate(0 0)" fill="#111"/>
</svg>
